<?xml version="1.0" standalone="no"?>
<svg viewBox="0 0 200 200" xmlns="http://www.w3.org/2000/svg">
  <path fill="#0068BD" d="M33.9,-66C39.7,-55.3,37.4,-37.8,42.5,-25.6C47.6,-13.5,60.2,-6.8,62.2,1.1C64.1,9,55.4,18,46.6,23.7C37.7,29.4,28.7,31.7,20.9,43.8C13.1,55.8,6.6,77.6,-3.3,83.3C-13.1,89,-26.2,78.6,-37.7,68.6C-49.1,58.7,-58.9,49.2,-68.1,37.8C-77.3,26.4,-86,13.2,-83.4,1.5C-80.9,-10.2,-67,-20.5,-56.2,-29C-45.3,-37.6,-37.5,-44.4,-28.6,-53.4C-19.7,-62.4,-9.9,-73.6,2.1,-77.2C14,-80.8,28,-76.8,33.9,-66Z" transform="translate(100 100)" />
</svg>
